<mxfile host="Electron" agent="Mozilla/5.0 (Windows NT 10.0; Win64; x64) AppleWebKit/537.36 (KHTML, like Gecko) draw.io/24.7.8 Chrome/128.0.6613.36 Electron/32.0.1 Safari/537.36" version="24.7.8">
  <diagram name="Page-1" id="xdmfXHZDLuQnBUv0d5hG">
    <mxGraphModel dx="1040" dy="606" grid="1" gridSize="10" guides="1" tooltips="1" connect="1" arrows="1" fold="1" page="1" pageScale="1" pageWidth="1600" pageHeight="1200" math="0" shadow="0">
      <root>
        <mxCell id="0" />
        <mxCell id="1" parent="0" />
        <mxCell id="L2pa7c4ZlyPh17OFLAgf-1" value="" style="rounded=1;whiteSpace=wrap;html=1;" vertex="1" parent="1">
          <mxGeometry x="420" y="80" width="260" height="450" as="geometry" />
        </mxCell>
        <mxCell id="L2pa7c4ZlyPh17OFLAgf-2" value="LOGIN" style="ellipse;whiteSpace=wrap;html=1;" vertex="1" parent="1">
          <mxGeometry x="470" y="100" width="150" height="70" as="geometry" />
        </mxCell>
        <mxCell id="L2pa7c4ZlyPh17OFLAgf-7" value="START MONITORING" style="ellipse;whiteSpace=wrap;html=1;" vertex="1" parent="1">
          <mxGeometry x="475" y="260" width="150" height="70" as="geometry" />
        </mxCell>
        <mxCell id="L2pa7c4ZlyPh17OFLAgf-8" value="VIEW REPORT" style="ellipse;whiteSpace=wrap;html=1;" vertex="1" parent="1">
          <mxGeometry x="475" y="340" width="150" height="70" as="geometry" />
        </mxCell>
        <mxCell id="L2pa7c4ZlyPh17OFLAgf-9" value="VIEW STUDET DETAILS" style="ellipse;whiteSpace=wrap;html=1;" vertex="1" parent="1">
          <mxGeometry x="475" y="420" width="150" height="70" as="geometry" />
        </mxCell>
        <mxCell id="L2pa7c4ZlyPh17OFLAgf-10" value="SIGNUP" style="ellipse;whiteSpace=wrap;html=1;" vertex="1" parent="1">
          <mxGeometry x="475" y="180" width="150" height="70" as="geometry" />
        </mxCell>
        <mxCell id="L2pa7c4ZlyPh17OFLAgf-16" style="rounded=0;orthogonalLoop=1;jettySize=auto;html=1;exitX=0.5;exitY=0.5;exitDx=0;exitDy=0;exitPerimeter=0;entryX=0;entryY=0.5;entryDx=0;entryDy=0;" edge="1" parent="1" source="L2pa7c4ZlyPh17OFLAgf-13" target="L2pa7c4ZlyPh17OFLAgf-2">
          <mxGeometry relative="1" as="geometry" />
        </mxCell>
        <mxCell id="L2pa7c4ZlyPh17OFLAgf-18" style="rounded=0;orthogonalLoop=1;jettySize=auto;html=1;exitX=0.5;exitY=0.5;exitDx=0;exitDy=0;exitPerimeter=0;entryX=0;entryY=0.5;entryDx=0;entryDy=0;" edge="1" parent="1" source="L2pa7c4ZlyPh17OFLAgf-13" target="L2pa7c4ZlyPh17OFLAgf-7">
          <mxGeometry relative="1" as="geometry" />
        </mxCell>
        <mxCell id="L2pa7c4ZlyPh17OFLAgf-20" style="edgeStyle=none;rounded=0;orthogonalLoop=1;jettySize=auto;html=1;exitX=0.5;exitY=0.5;exitDx=0;exitDy=0;exitPerimeter=0;entryX=0;entryY=0.5;entryDx=0;entryDy=0;" edge="1" parent="1" source="L2pa7c4ZlyPh17OFLAgf-13" target="L2pa7c4ZlyPh17OFLAgf-9">
          <mxGeometry relative="1" as="geometry" />
        </mxCell>
        <mxCell id="L2pa7c4ZlyPh17OFLAgf-13" value="STUDENT" style="shape=umlActor;verticalLabelPosition=bottom;verticalAlign=top;html=1;outlineConnect=0;" vertex="1" parent="1">
          <mxGeometry x="170" y="241" width="50" height="90" as="geometry" />
        </mxCell>
        <mxCell id="L2pa7c4ZlyPh17OFLAgf-21" style="edgeStyle=none;rounded=0;orthogonalLoop=1;jettySize=auto;html=1;exitX=0.5;exitY=0.5;exitDx=0;exitDy=0;exitPerimeter=0;entryX=1;entryY=0.5;entryDx=0;entryDy=0;" edge="1" parent="1" source="L2pa7c4ZlyPh17OFLAgf-14" target="L2pa7c4ZlyPh17OFLAgf-2">
          <mxGeometry relative="1" as="geometry" />
        </mxCell>
        <mxCell id="L2pa7c4ZlyPh17OFLAgf-22" style="edgeStyle=none;rounded=0;orthogonalLoop=1;jettySize=auto;html=1;exitX=0.5;exitY=0.5;exitDx=0;exitDy=0;exitPerimeter=0;entryX=1;entryY=0.5;entryDx=0;entryDy=0;" edge="1" parent="1" source="L2pa7c4ZlyPh17OFLAgf-14" target="L2pa7c4ZlyPh17OFLAgf-10">
          <mxGeometry relative="1" as="geometry" />
        </mxCell>
        <mxCell id="L2pa7c4ZlyPh17OFLAgf-24" style="edgeStyle=none;rounded=0;orthogonalLoop=1;jettySize=auto;html=1;exitX=0.5;exitY=0.5;exitDx=0;exitDy=0;exitPerimeter=0;entryX=1;entryY=0.5;entryDx=0;entryDy=0;" edge="1" parent="1" source="L2pa7c4ZlyPh17OFLAgf-14" target="L2pa7c4ZlyPh17OFLAgf-8">
          <mxGeometry relative="1" as="geometry" />
        </mxCell>
        <mxCell id="L2pa7c4ZlyPh17OFLAgf-26" style="edgeStyle=none;rounded=0;orthogonalLoop=1;jettySize=auto;html=1;exitX=0.5;exitY=0.5;exitDx=0;exitDy=0;exitPerimeter=0;entryX=1;entryY=0.5;entryDx=0;entryDy=0;" edge="1" parent="1" source="L2pa7c4ZlyPh17OFLAgf-14" target="L2pa7c4ZlyPh17OFLAgf-9">
          <mxGeometry relative="1" as="geometry" />
        </mxCell>
        <mxCell id="L2pa7c4ZlyPh17OFLAgf-14" value="TEACHER" style="shape=umlActor;verticalLabelPosition=bottom;verticalAlign=top;html=1;outlineConnect=0;" vertex="1" parent="1">
          <mxGeometry x="860" y="241" width="50" height="90" as="geometry" />
        </mxCell>
      </root>
    </mxGraphModel>
  </diagram>
</mxfile>
